<svg xmlns="http://www.w3.org/2000/svg" fill="#4A4A4A" viewBox="0 0 64 64">
	<g id="icon_line_search">
		<path fill="inherit" stroke="none" d="M26.7 13.3c7.3 0 13.3 6 13.3 13.3S34 40 26.7 40s-13.3-6-13.3-13.3 5.9-13.4 13.3-13.4m0-5.3C16.4 8 8 16.4 8 26.7s8.4 18.7 18.7 18.7S45.4 37 45.4 26.7 36.9 8 26.7 8z"/>
		<path fill="inherit" stroke="none" d="M53.3 55.2l1.9-1.9c1.1-1.1 1.1-2.7 0-3.7L41.9 36.3c-1.1-1.1-2.7-1.1-3.7 0l-1.9 1.9c-1.1 1.1-1.1 2.7 0 3.7l13.3 13.3c.9 1.1 2.7 1.1 3.7 0z"/>
	</g>
</svg>
