<svg xmlns="http://www.w3.org/2000/svg" width="32" height="32" viewBox="0 0 32 32">
  <path fill="#4A4A4A" fill-rule="evenodd" d="M19.9700517,16.685 C19.9700517,15.7842577 19.6448916,14.9995381 19.0076767,14.3623233 C18.3704619,13.7251084 17.5857423,13.3999483 16.685,13.3999483 C15.7842577,13.3999483 14.9995381,13.7251084 14.3623233,14.3623233 C13.7251084,14.9995381 13.3999483,15.7842577 13.3999483,16.685 C13.3999483,17.5857423 13.7251084,18.3704619 14.3623233,19.0076767 C14.9995381,19.6448916 15.7842577,19.9700517 16.685,19.9700517 C17.5857423,19.9700517 18.3704619,19.6448916 19.0076767,19.0076767 C19.6448916,18.3704619 19.9700517,17.5857423 19.9700517,16.685 L19.9700517,16.685 Z M18.8432817,16.685 C18.8432817,17.286852 18.6368715,17.7849886 18.21093,18.21093 C17.7849886,18.6368715 17.286852,18.8432817 16.685,18.8432817 C16.083148,18.8432817 15.5850114,18.6368715 15.15907,18.21093 C14.7331285,17.7849886 14.5267183,17.286852 14.5267183,16.685 C14.5267183,16.083148 14.7331285,15.5850114 15.15907,15.15907 C15.5850114,14.7331285 16.083148,14.5267183 16.685,14.5267183 C17.286852,14.5267183 17.7849886,14.7331285 18.21093,15.15907 C18.6368715,15.5850114 18.8432817,16.083148 18.8432817,16.685 L18.8432817,16.685 Z M24.286615,15.5261654 L24.286615,17.8863607 C24.286615,17.8480973 24.2981898,17.8148198 24.3093181,17.7995183 C24.3369667,17.7615015 24.3942167,17.724289 24.4596978,17.7133755 L22.5011794,18.0097364 L22.1664158,18.0604033 L22.0540402,18.3797864 C21.9285617,18.7364097 21.8017303,19.0323496 21.6752459,19.2663456 L21.5098363,19.5723534 L21.7093164,19.8573249 C21.9669656,20.2253951 22.3539248,20.724464 22.8723951,21.3581499 C22.8659327,21.3504308 22.8513611,21.3140017 22.8513611,21.267181 C22.8513611,21.2187986 22.8718528,21.166431 22.9003017,21.134821 C22.6948611,21.411343 22.361233,21.7753008 21.8709651,22.2587595 C21.6319047,22.4944996 21.4381,22.6679468 21.294408,22.7764801 C21.2215689,22.8314968 21.1829594,22.8513611 21.267181,22.8513611 C21.3007691,22.8513611 21.310088,22.8545869 21.2954164,22.8451552 L19.8708321,21.7271909 L19.5846642,21.5032334 L19.2626228,21.6715733 C18.9794836,21.8195778 18.6870052,21.9417117 18.3848542,22.0381429 L18.0390337,22.1485111 L17.9966197,22.5090302 C17.8861096,23.4483657 17.7862964,24.0885468 17.7025753,24.410551 C17.7144598,24.3629107 17.8125543,24.286615 17.8650977,24.286615 L15.5049023,24.286615 C15.5334872,24.286615 15.5720384,24.2999899 15.5989112,24.3217441 C15.643708,24.3580081 15.6789784,24.4239485 15.6838935,24.487845 L15.3814587,22.4901 L15.3292507,22.1470189 L14.9993614,22.0392999 C14.6794905,21.9348523 14.3879165,21.814983 14.1244834,21.6800538 L13.8092314,21.5185833 L13.5270778,21.7326998 L12.0280348,22.8702714 C12.0275684,22.86804 12.0738988,22.8513611 12.102819,22.8513611 C12.1576526,22.8513611 12.210665,22.8746865 12.2354046,22.8994261 C11.3497638,22.0971841 10.7862499,21.5234246 10.5395565,21.1818491 C10.5622015,21.214092 10.5717965,21.2456184 10.5717965,21.267181 C10.5717965,21.3054444 10.5602217,21.3387219 10.5490933,21.3540234 C10.6515474,21.2106231 10.8276401,20.9810119 11.0774887,20.6652312 C11.3374769,20.3366349 11.5334838,20.080737 11.6669784,19.8953278 L11.8731696,19.6089512 L11.7054976,19.2984476 C11.5329958,18.9789997 11.4032955,18.6658209 11.3155884,18.358846 L11.2157255,18.0093261 L10.8561124,17.9562684 L8.91054597,17.6692177 C8.96613379,17.6777588 9.02158892,17.7107678 9.05318638,17.7522395 C9.07093913,17.7755399 9.083385,17.8120997 9.083385,17.8438346 L9.083385,15.4836393 C9.083385,15.5219027 9.07181023,15.5551802 9.06068186,15.5704817 C9.03630637,15.603998 8.98088046,15.641921 8.90783215,15.6552025 L10.8683774,15.3603305 L11.2199652,15.3074034 L11.3234874,14.9672587 C11.411393,14.6784263 11.5347438,14.3874448 11.6941445,14.0941475 L11.8608896,13.7873365 L11.6603032,13.5015008 C11.3672371,13.0838817 10.9793258,12.5835849 10.4956884,11.9988889 C10.5027295,12.0073323 10.5186389,12.045515 10.5186389,12.102819 C10.5186389,12.1628988 10.5100049,12.1849634 10.5141482,12.1789786 C10.6689417,11.9648405 11.0006443,11.6028301 11.4937386,11.1165371 C11.7346673,10.8789315 11.9299127,10.7040666 12.0746333,10.5945689 C12.1481283,10.5389616 12.1874948,10.5186389 12.102819,10.5186389 C12.0621048,10.5186389 12.0367133,10.508873 12.0357364,10.5081215 L13.5011723,11.6443705 L13.7869277,11.8659345 L14.1073772,11.6984267 C14.3905164,11.5504222 14.6829948,11.4282883 14.9851458,11.3318571 L15.3309663,11.2214889 L15.3733803,10.8609698 C15.4838904,9.92163426 15.5837036,9.28145323 15.6674247,8.95944903 C15.6555402,9.00708925 15.5574457,9.083385 15.5049023,9.083385 L17.8650977,9.083385 C17.8365128,9.083385 17.7979616,9.07001009 17.7710888,9.04825594 C17.726292,9.01199187 17.6910216,8.94605153 17.6861065,8.88215497 L17.9885413,10.8799 L18.0407493,11.2229811 L18.3706386,11.3307001 C18.6905095,11.4351477 18.9820835,11.555017 19.2455166,11.6899462 L19.5595805,11.8508082 L19.8413944,11.6384555 L21.3510688,10.5008839 L21.4103981,10.4493109 C21.3632981,10.4964108 21.3040232,10.5186389 21.267181,10.5186389 C21.2203603,10.5186389 21.1839311,10.5040673 21.1722985,10.4943734 C22.0367933,11.2928248 22.6018644,11.8750193 22.8269005,12.1938204 C22.8153339,12.185239 22.7982035,12.1314006 22.7982035,12.102819 C22.7982035,12.0645556 22.8097783,12.0312781 22.8209067,12.0159766 C22.7184526,12.1593769 22.5423599,12.3889881 22.2925113,12.7047688 C22.0325231,13.0333651 21.8365162,13.289263 21.7030216,13.4746722 L21.5003913,13.7561031 L21.6603832,14.0637799 C21.8297619,14.389508 21.9622635,14.7062193 22.0583801,15.0137924 L22.1632771,15.3494629 L22.5109104,15.4026527 L24.4564768,15.700335 C24.4038662,15.6922412 24.3484111,15.6592322 24.3168136,15.6177605 C24.2990609,15.5944601 24.286615,15.5579003 24.286615,15.5261654 L24.286615,15.5261654 Z M25.413385,15.5261654 C25.413385,15.31015 25.3442383,15.1070316 25.2130822,14.9348892 C25.0680814,14.7445757 24.8637866,14.6229716 24.6273529,14.5865972 L22.6813291,14.2888447 L22.5961198,14.8457487 L23.1338595,14.677705 C23.0173448,14.3048581 22.8592547,13.9269842 22.6600725,13.5439415 L22.1602279,13.8038607 L22.6174341,14.1330492 C22.739097,13.9640729 22.9258207,13.7202948 23.1761475,13.4039095 C23.436614,13.0747088 23.621989,12.8329944 23.7349817,12.6748046 C23.8566979,12.5074798 23.9249735,12.3111874 23.9249735,12.102819 C23.9249735,11.8757815 23.8582299,11.6660159 23.7111584,11.4979342 C23.4621564,11.1398859 22.8577732,10.517188 21.9149682,9.64746872 C21.7119013,9.47731658 21.4982821,9.39186891 21.267181,9.39186891 C21.0177075,9.39186891 20.7883301,9.47788543 20.6136514,9.65256415 L21.0120247,10.0509375 L20.6729806,9.60099111 L19.1633062,10.7385627 L19.5023503,11.1885091 L19.7591839,10.687072 C19.4414249,10.5243174 19.0951146,10.3819454 18.72039,10.2595864 L18.5455143,10.7951432 L19.1024873,10.7103865 L18.8048051,8.75418855 C18.790467,8.54755866 18.6736892,8.32923486 18.4800505,8.17247974 C18.3043358,8.03023453 18.0921384,7.956615 17.8650977,7.956615 L15.5049023,7.956615 C15.0412719,7.956615 14.6880237,8.23136362 14.5756042,8.68104136 C14.4763519,9.06268225 14.3706246,9.74079533 14.254328,10.7293166 L14.8138542,10.7951432 L14.6425625,10.2584293 C14.2784689,10.3746294 13.9259754,10.5218245 13.5853962,10.6998545 L13.8463867,11.1991406 L14.1916012,10.7539108 L12.7244527,9.61633914 C12.5374828,9.47251088 12.3278137,9.39186891 12.102819,9.39186891 C11.7249254,9.39186891 11.350908,9.67485567 10.7025439,10.3142767 C10.1679204,10.8415261 9.80149413,11.241433 9.59421298,11.5284377 C9.4642913,11.7159056 9.39186891,11.900985 9.39186891,12.102819 C9.39186891,12.3302281 9.47865438,12.5385132 9.62876466,12.7186455 C10.0935652,13.2805745 10.4640274,13.7583668 10.7379781,14.1487465 L11.1991406,13.8251237 L10.7041368,13.5560999 C10.509152,13.9148719 10.3560863,14.2759498 10.245536,14.6391866 L10.7845117,14.8032227 L10.700646,14.2461148 L8.72318508,14.5437971 C8.4772915,14.5882397 8.28720114,14.7183016 8.1494223,14.9077475 C8.0248906,15.0789786 7.956615,15.2752709 7.956615,15.4836393 L7.956615,17.8438346 C7.956615,18.05985 8.0257617,18.2629684 8.15691778,18.4351108 C8.30191859,18.6254243 8.50621338,18.7470284 8.74264707,18.7834028 L10.691648,19.0709711 L10.7738802,18.5136198 L10.232172,18.6683936 C10.3429208,19.0560142 10.5038122,19.4445081 10.7140466,19.8338311 L11.2097721,19.5661393 L10.7525659,19.2369508 C10.630903,19.4059271 10.4441793,19.6497052 10.1938525,19.9660905 C9.93338597,20.2952912 9.748011,20.5370056 9.63501831,20.6951954 C9.51330205,20.8625202 9.44502646,21.0588126 9.44502646,21.267181 C9.44502646,21.473024 9.50423465,21.6675652 9.62128906,21.8347858 C9.93225546,22.2654595 10.5381961,22.8824172 11.4590487,23.7155696 C11.6193271,23.876842 11.8495295,23.9781311 12.102819,23.9781311 C12.3443705,23.9781311 12.567891,23.8976637 12.7454915,23.7378233 L14.2082217,22.6302819 L13.8676497,22.1814909 L13.6108161,22.682928 C13.9285751,22.8456826 14.2748854,22.9880546 14.64961,23.1104136 L14.8244857,22.5748568 L14.2675127,22.6596135 L14.5651949,24.6158115 C14.579533,24.8224413 14.6963108,25.0407651 14.8899495,25.1975203 C15.0656642,25.3397655 15.2778616,25.413385 15.5049023,25.413385 L17.8650977,25.413385 C18.3287281,25.413385 18.6819763,25.1386364 18.7943958,24.6889586 C18.8936481,24.3073177 18.9993754,23.6292047 19.115672,22.6406834 L18.5561458,22.5748568 L18.7274375,23.1115707 C19.0915311,22.9953706 19.4440246,22.8481755 19.7846038,22.6701455 L19.5236133,22.1708594 L19.1763945,22.6145279 L20.6435429,23.762731 C20.8698913,23.9111169 21.0634879,23.9781311 21.267181,23.9781311 C21.6447906,23.9781311 22.0179742,23.6962584 22.6621208,23.0610582 C23.192483,22.5380622 23.5605276,22.1365589 23.7741598,21.8438038 C23.893851,21.7152263 23.9781311,21.4998438 23.9781311,21.267181 C23.9781311,21.0360798 23.8926834,20.8224606 23.7412353,20.6407229 C23.2423071,20.0308857 22.8708928,19.5518654 22.6324024,19.2111647 L22.1708594,19.5342448 L22.6664728,19.802144 C22.8234969,19.5116495 22.973082,19.1626176 23.1169363,18.7537683 L22.5854883,18.5667773 L22.6697972,19.1238183 L24.6366266,18.826136 C24.8805238,18.7855502 25.0795258,18.6561989 25.2205777,18.4622525 C25.3451094,18.2910214 25.413385,18.0947291 25.413385,17.8863607 L25.413385,15.5261654 L25.413385,15.5261654 Z"/>
</svg>
