<svg xmlns="http://www.w3.org/2000/svg" width="32" height="32" viewBox="0 0 32 32">
  <g fill="none" fill-rule="evenodd" transform="translate(2 6)">
    <polyline stroke="#4A4A4A" stroke-width="1.5" points="21 10 14 19 7 10"/>
    <polyline stroke="#4A4A4A" points="23.825 2.024 21.439 4.992 19.795 1.901" transform="rotate(-62 21.81 3.447)"/>
    <polyline stroke="#4A4A4A" points="8.205 2.024 5.818 4.992 4.175 1.901" transform="scale(-1 1) rotate(-62 0 13.748)"/>
    <path stroke="#4A4A4A" stroke-width="1.5" d="M8,11 C8,11 10,9.5 14,9.5 C18,9.5 20,11 20,11"/>
    <path stroke="#4A4A4A" d="M9.5,12 C9.5,12 12.2871622,10.5 14,10.5 C15.7128378,10.5 18.5,12 18.5,12" transform="matrix(1 0 0 -1 0 22.5)"/>
    <path stroke="#4A4A4A" d="M5,4.5 C5,4.5 8.5,1.5 14.5,1.5 C20.5,1.5 23,4.5 23,4.5"/>
    <path fill="#4A4A4A" d="M5.5223111 6.59278345L4.33828277 7.51369437 5.566164 9.09239881 6.75019232 8.17148789 5.5223111 6.59278345zM3.68048925 4.2247268L2.49646093 5.14563772 3.72434216 6.72434216 4.90837048 5.80343124 3.68048925 4.2247268zM1.83866741 1.85667015L.654639088 2.77758107 1.88252032 4.3562855 3.06654864 3.43537458 1.83866741 1.85667015zM23.6617172 7.51369437L22.4776889 6.59278345 21.2498077 8.17148789 22.433836 9.09239881 23.6617172 7.51369437zM25.5035391 5.14563772L24.3195107 4.2247268 23.0916295 5.80343124 24.2756578 6.72434216 25.5035391 5.14563772zM27.3453609 2.77758107L26.1613326 1.85667015 24.9334514 3.43537458 26.1174797 4.3562855 27.3453609 2.77758107z"/>
  </g>
</svg>
