<svg xmlns="http://www.w3.org/2000/svg" width="32" height="32" viewBox="0 0 32 32">
  <path fill="#4A4A4A" fill-rule="evenodd" d="M26.5346154,9.14736842 L16.3807692,4.09473684 C16.1269231,3.96842105 15.8730769,3.96842105 15.6192308,4.09473684 L5.46538462,9.14736842 C5.16923077,9.27368421 5,9.56842105 5,9.90526316 L5,21.6947368 C5,22.0315789 5.16923077,22.3263158 5.46538462,22.4526316 L15.6192308,27.5052632 C15.7461538,27.5473684 15.8730769,27.5894737 16,27.5894737 C16.1269231,27.5894737 16.2538462,27.5473684 16.3807692,27.5052632 L26.5346154,22.4526316 C26.8307692,22.3263158 27,22.0315789 27,21.6947368 L27,9.90526316 C27,9.56842105 26.8307692,9.27368421 26.5346154,9.14736842 L26.5346154,9.14736842 Z M7.28461538,10.1578947 L16,5.77894737 L24.7153846,10.1157895 L16,14.4947368 L7.28461538,10.1578947 L7.28461538,10.1578947 Z M25.3076923,21.1894737 L16.4230769,25.6105263 L16.4230769,15.2105263 L25.3076923,10.7894737 L25.3076923,21.1894737 L25.3076923,21.1894737 Z M6.69230769,21.1894737 L6.69230769,10.7894737 L15.5769231,15.2105263 L15.5769231,25.5684211 L6.69230769,21.1894737 L6.69230769,21.1894737 Z"/>
</svg>
