<svg xmlns="http://www.w3.org/2000/svg" fill="#4A4A4A" viewBox="0 0 32 32">
  <path id="wi_delete" fill="inherit" stroke="none" fill-rule="evenodd" d="M11.38 14.3v7.67c0 .13.01.23.05.3.03.09.07.13.13.13h.35c.05 0 .1-.04.13-.12a.74.74 0 0 0 .05-.3v-7.69a.74.74 0 0 0-.05-.3c-.04-.08-.07-.12-.13-.12h-.35c-.05 0-.1.04-.13.12a.74.74 0 0 0-.05.3zm4.26 0v7.67c0 .13-.01.23-.05.3-.03.09-.07.13-.12.13h-.36c-.05 0-.1-.04-.13-.12a.8.8 0 0 1-.05-.3v-7.69c0-.12.02-.22.05-.3.04-.08.07-.12.13-.12h.36c.05 0 .09.04.12.12.04.08.05.18.05.3zm3.56 0v7.67c0 .13-.01.23-.05.3-.04.09-.07.13-.13.13h-.35c-.05 0-.1-.04-.13-.12a.8.8 0 0 1-.05-.3v-7.69c0-.12.01-.22.05-.3.03-.08.07-.12.13-.12h.35c.05 0 .1.04.13.12.04.08.05.18.05.3zm1.74 9.37v-12.3H9.64v12.3c0 .3.09.61.27.87.06.07.1.11.12.11h10.52c.02 0 .07-.03.13-.11.18-.26.27-.56.27-.87zM12.46 9.72h5.66L17.5 8.2a.36.36 0 0 0-.22-.14h-4a.36.36 0 0 0-.2.14l-.62 1.52h-.01zm11.72 1.25c0 .12-.04.2-.12.3a.4.4 0 0 1-.28.1h-1.22v12.3a3 3 0 0 1-.6 1.86c-.38.52-.86.78-1.42.78H10.03c-.56 0-1.03-.25-1.43-.76a2.89 2.89 0 0 1-.6-1.83V11.38H6.8a.4.4 0 0 1-.3-.12.41.41 0 0 1-.1-.3v-.83a.4.4 0 0 1 .1-.3.4.4 0 0 1 .3-.1h3.9l.88-2.18c.13-.32.36-.59.69-.82.29-.2.63-.32 1-.33h4.03c.34 0 .67.11 1 .33.33.23.55.5.68.82l.89 2.17h3.9c.12 0 .2.04.29.11.07.08.11.18.11.3v.84z" clip-rule="evenodd"/>
</svg>