<svg xmlns="http://www.w3.org/2000/svg" xmlns:xlink="http://www.w3.org/1999/xlink" width="40" height="40" viewBox="0 0 40 40" fill="#4A4A4A">
  <g id="wi_warehouse" transform="translate(4.9 6.2)">
    <path fill-rule="evenodd" d="M17.76 0l.65 2.32.03.18.2-.05 1.18 1.96 3.33-2.93 7.37 10.84-4.88 4.4 4.06 1.97-5.76 2.01-.4 1.97-12.46 4.46-1.83-5.12-5.2-.73L0 7.8l5.7 1.62-1.6-5.91L17.76 0zm-1.21 2.1l.19.68.05.15L7 5.45l.72 4.65-.04.01-1.44-5.36L16.55 2.1zM2.57 10.34l4.1 1.17a.5.5 0 0 0 .17.03l3.3 8.85-4.76-.67-2.81-9.38zm22.64 8.08L12.94 22.7 12 21.4l11.43-3.84 1.78.86zm-9.08-8.76l2.6 5.04-3 .96-1.4-3.06-3.71 1.13-.89-2.2 6.4-1.87zm-2.17 6.36L15 18.34l-2.94.96-.93-2.38 2.83-.9zm5.75-4.3l-3.14-5.79-7.45 2.1-.88-2.12 10.04-2.58 4.5 7.45-3.07.94zm-12.27-.75l.38-.11.3 1.93-.68-1.82zm15.55 4.72l.57 1.02-.78.27.2-1.3zm5.25-3.65l-5.42-7.96-1.9 1.67a.87.87 0 0 1-.2.14l3.03 5.04-.57 3.54.8 1.42 4.26-3.85z"/>
  </g>
</svg>