<?xml version="1.0" encoding="utf-8"?>
<!-- Generator: Adobe Illustrator 23.1.0, SVG Export Plug-In . SVG Version: 6.00 Build 0)  -->
<svg version="1.1" id="Layer_1" xmlns="http://www.w3.org/2000/svg" xmlns:xlink="http://www.w3.org/1999/xlink" x="0px" y="0px"
	 viewBox="0 0 320 320" style="enable-background:new 0 0 320 320;" xml:space="preserve">
<style type="text/css">
	.st0{fill:#333333;}
</style>
<g>
	<path class="st0" d="M160,12.5c39.4,0,76.4,15.3,104.3,43.2c27.9,27.9,43.2,64.9,43.2,104.3s-15.3,76.4-43.2,104.3
		s-64.9,43.2-104.3,43.2s-76.4-15.3-104.3-43.2C27.8,236.4,12.5,199.4,12.5,160S27.8,83.6,55.7,55.7C83.6,27.8,120.6,12.5,160,12.5
		 M160,5C74.4,5,5,74.4,5,160s69.4,155,155,155s155-69.4,155-155S245.6,5,160,5L160,5z"/>
</g>
</svg>
