<?xml version="1.0" encoding="utf-8"?>
<!-- Generator: Adobe Illustrator 16.0.4, SVG Export Plug-In . SVG Version: 6.00 Build 0)  -->
<!DOCTYPE svg PUBLIC "-//W3C//DTD SVG 1.1//EN" "http://www.w3.org/Graphics/SVG/1.1/DTD/svg11.dtd">
<svg version="1.1"
	 id="svg5615" xmlns:svg="http://www.w3.org/2000/svg" xmlns:cc="http://creativecommons.org/ns#" xmlns:dc="http://purl.org/dc/elements/1.1/" xmlns:sodipodi="http://sodipodi.sourceforge.net/DTD/sodipodi-0.dtd" xmlns:rdf="http://www.w3.org/1999/02/22-rdf-syntax-ns#" xmlns:inkscape="http://www.inkscape.org/namespaces/inkscape" sodipodi:docname="fiat chrysler auto.svg" inkscape:version="0.91 r13725"
	 xmlns="http://www.w3.org/2000/svg" xmlns:xlink="http://www.w3.org/1999/xlink" x="0px" y="0px" width="400px" height="148.512px"
	 viewBox="-98.686 -36.64 400 148.512" enable-background="new -98.686 -36.64 400 148.512" xml:space="preserve">
<sodipodi:namedview  units="px" id="base" borderopacity="1.0" bordercolor="#666666" pagecolor="#ffffff" inkscape:cx="100.81375" inkscape:cy="37.115815" inkscape:zoom="4.4884748" fit-margin-top="0" fit-margin-left="0" showgrid="false" inkscape:window-y="-4" inkscape:document-units="px" fit-margin-right="0" inkscape:window-x="-4" inkscape:pageopacity="0.0" inkscape:window-height="744" inkscape:pageshadow="2" inkscape:window-maximized="1" inkscape:current-layer="layer1" fit-margin-bottom="0" inkscape:window-width="1280">
	</sodipodi:namedview>
<g id="layer1" transform="translate(-182.04339,-442.81782)" inkscape:label="Layer 1" inkscape:groupmode="layer">
	<path id="path5533" inkscape:connector-curvature="0" fill="#5D7FC8" d="M134.235,504.282h18.221v-30.796h62.442v-18.098h-62.442
		v-21.229h65.846v-18.105h-84.067V504.282z"/>
	<path id="path5545" inkscape:connector-curvature="0" fill="#5D7FC8" d="M307.272,469.22
		c-3.884,12.398-15.527,21.389-29.268,21.389c-16.927,0-30.642-13.608-30.642-30.436c0-16.815,13.714-30.437,30.642-30.437
		c13.741,0,25.384,8.994,29.268,21.389h18.659c-4.266-22.455-24.073-39.454-47.927-39.454c-26.96,0-48.82,21.722-48.82,48.502
		c0,26.776,21.86,48.489,48.82,48.489c23.854,0,43.662-16.987,47.927-39.443H307.272L307.272,469.22z"/>
	<path id="path5549" inkscape:connector-curvature="0" fill="#5D7FC8" d="M378.609,408.642l-55.604,95.641h21.053l34.551-59.441
		l34.583,59.441h21.055L378.609,408.642L378.609,408.642z"/>
	<path id="path5553" inkscape:connector-curvature="0" fill="#7A7F81" d="M358.652,543.572c0,0.962-0.156,1.872-0.488,2.681
		c-0.313,0.837-0.761,1.585-1.336,2.201c-0.566,0.617-1.253,1.111-2.052,1.485c-0.778,0.351-1.675,0.535-2.603,0.535
		c-0.95,0-1.824-0.188-2.624-0.562c-0.789-0.354-1.48-0.853-2.062-1.489c-0.593-0.617-1.029-1.344-1.371-2.184
		c-0.305-0.86-0.482-1.751-0.482-2.707v-0.062c0-0.96,0.178-1.861,0.482-2.681c0.342-0.856,0.771-1.583,1.342-2.202
		c0.572-0.636,1.253-1.108,2.053-1.477c0.796-0.357,1.675-0.543,2.623-0.543c0.929,0,1.805,0.189,2.597,0.566
		c0.799,0.358,1.491,0.852,2.062,1.49c0.601,0.612,1.058,1.343,1.371,2.203c0.332,0.842,0.488,1.752,0.488,2.704V543.572z
		 M358.274,537.404c-0.735-0.799-1.632-1.437-2.668-1.895c-1.031-0.46-2.173-0.696-3.433-0.696c-1.254,0-2.424,0.239-3.463,0.7
		c-1.028,0.479-1.935,1.105-2.666,1.905c-0.729,0.796-1.328,1.734-1.742,2.78c-0.396,1.06-0.61,2.168-0.61,3.333v0.04
		c0,1.156,0.193,2.253,0.606,3.317c0.407,1.037,0.978,1.978,1.71,2.747c0.757,0.8,1.635,1.437,2.67,1.902
		c1.028,0.46,2.171,0.686,3.455,0.686c1.262,0,2.407-0.229,3.441-0.714c1.054-0.466,1.936-1.106,2.688-1.885
		c0.735-0.792,1.299-1.732,1.713-2.772c0.422-1.071,0.622-2.172,0.622-3.321c0.004-0.025,0.004-0.038,0-0.062
		c0-1.147-0.2-2.254-0.606-3.289C359.573,539.118,359.002,538.182,358.274,537.404 M324.223,544.905
		c0,1.833-0.458,3.215-1.343,4.154c-0.906,0.92-2.12,1.377-3.647,1.377c-1.596,0-2.827-0.468-3.73-1.449
		c-0.91-0.984-1.336-2.395-1.336-4.219v-9.677h-1.87v9.813c0,1.184,0.164,2.222,0.499,3.14c0.337,0.911,0.801,1.674,1.403,2.309
		c0.61,0.609,1.344,1.075,2.178,1.382c0.842,0.328,1.788,0.479,2.812,0.479c1.04,0,1.978-0.151,2.824-0.479
		c0.835-0.307,1.571-0.772,2.171-1.406c0.613-0.617,1.073-1.388,1.409-2.335c0.339-0.919,0.505-2.009,0.505-3.262v-9.641h-1.875
		V544.905L324.223,544.905z M269.859,543.69v-6.846h5.125c1.348,0,2.38,0.305,3.139,0.876c0.737,0.604,1.104,1.406,1.104,2.465
		v0.044c0,0.536-0.098,1.029-0.306,1.444c-0.227,0.425-0.516,0.805-0.894,1.104c-0.379,0.275-0.836,0.507-1.349,0.655
		c-0.522,0.182-1.091,0.257-1.702,0.257H269.859L269.859,543.69z M278.41,544.492c0.552-0.261,1.024-0.599,1.439-0.998
		c0.404-0.409,0.688-0.899,0.917-1.467c0.244-0.541,0.346-1.157,0.346-1.877v-0.064c0-0.657-0.103-1.267-0.346-1.835
		c-0.229-0.57-0.536-1.036-0.947-1.453c-0.518-0.539-1.165-0.949-1.964-1.252c-0.803-0.3-1.701-0.454-2.741-0.454h-7.126v16.861
		h1.871v-6.55h4.739l4.813,6.55h2.288l-5.098-6.89C277.26,544.945,277.855,544.756,278.41,544.492 M297.761,545.782l3.798-8.593
		l3.745,8.593H297.761z M300.691,534.977l-7.546,16.976h1.913l1.975-4.455h9.014l1.949,4.455h1.992l-7.546-16.976H300.691
		L300.691,534.977z M252.831,544.313h9.042v-1.715h-9.042v-5.795h10.107v-1.712h-11.97v16.861h12.085v-1.712h-10.223V544.313z
		 M373.194,544.295l-6.046-9.203h-1.902v16.861h1.853v-13.628l6.03,8.991h0.07l6.029-9v13.637h1.888v-16.861h-1.891L373.194,544.295
		z M477.034,544.343c-0.856-0.73-2.229-1.304-4.081-1.744c-0.916-0.189-1.648-0.39-2.249-0.614
		c-0.574-0.199-1.038-0.432-1.369-0.722c-0.341-0.263-0.569-0.536-0.687-0.854c-0.125-0.325-0.186-0.674-0.186-1.066v-0.058
		c0-0.769,0.303-1.416,0.936-1.941c0.625-0.51,1.499-0.775,2.591-0.775c0.847,0,1.675,0.147,2.445,0.426
		c0.792,0.297,1.563,0.762,2.327,1.402l1.093-1.453c-0.836-0.705-1.734-1.215-2.628-1.552c-0.914-0.346-1.978-0.531-3.19-0.531
		c-0.8,0-1.521,0.117-2.171,0.346c-0.681,0.229-1.253,0.561-1.744,0.982c-0.476,0.393-0.854,0.874-1.122,1.444
		c-0.289,0.549-0.415,1.157-0.415,1.832v0.042c0,0.683,0.122,1.291,0.339,1.796c0.236,0.524,0.552,0.974,1.036,1.354
		c0.43,0.384,1.024,0.701,1.721,0.97c0.715,0.294,1.525,0.528,2.474,0.75c0.878,0.19,1.597,0.38,2.159,0.582
		c0.572,0.22,0.997,0.453,1.312,0.71c0.327,0.264,0.554,0.543,0.671,0.851c0.12,0.308,0.195,0.673,0.195,1.052v0.048
		c0,0.83-0.343,1.519-1.02,2.054c-0.665,0.533-1.564,0.803-2.675,0.803c-1.15,0-2.174-0.191-3.052-0.581
		c-0.906-0.407-1.776-0.988-2.624-1.788l-1.175,1.381c0.996,0.914,2.05,1.599,3.155,2.024c1.078,0.45,2.292,0.679,3.617,0.679
		c0.834,0,1.593-0.118,2.26-0.344c0.706-0.226,1.291-0.539,1.784-0.956c0.5-0.421,0.903-0.921,1.175-1.511
		c0.264-0.587,0.421-1.238,0.421-1.955v-0.068C478.357,546.094,477.908,545.095,477.034,544.343 M451.845,544.313h9.039v-1.715
		h-9.039v-5.795h10.099v-1.712h-11.969v16.861h12.087v-1.712h-10.217V544.313z M436.501,535.092h-1.896v16.861h11.197v-1.776h-9.301
		V535.092L436.501,535.092z M419.772,547.228c0,0.951-0.371,1.68-1.092,2.21c-0.732,0.538-1.746,0.803-2.984,0.803h-5.556v-5.946
		h5.227c1.445,0,2.541,0.267,3.273,0.765c0.757,0.498,1.132,1.193,1.132,2.132V547.228L419.772,547.228z M410.14,536.802h5.033
		c1.179,0,2.086,0.261,2.711,0.759c0.639,0.498,0.949,1.149,0.949,1.979v0.046c0,0.986-0.349,1.717-1.062,2.241
		c-0.692,0.506-1.604,0.759-2.744,0.759h-4.888V536.802L410.14,536.802z M420.587,544.611c-0.308-0.309-0.692-0.582-1.118-0.831
		c-0.442-0.229-0.878-0.421-1.393-0.545c0.337-0.16,0.668-0.34,0.976-0.565c0.282-0.203,0.573-0.489,0.812-0.794
		c0.258-0.31,0.479-0.667,0.611-1.086c0.147-0.443,0.226-0.908,0.226-1.447v-0.069c0-1.032-0.346-1.93-1.068-2.692
		c-0.467-0.458-1.072-0.814-1.799-1.08c-0.729-0.255-1.562-0.409-2.51-0.409h-7.046v16.861h7.353c0.908,0,1.711-0.118,2.445-0.329
		c0.75-0.195,1.393-0.507,1.904-0.892c0.526-0.403,0.941-0.869,1.217-1.445c0.293-0.571,0.42-1.217,0.42-1.942v-0.04
		c0-0.598-0.088-1.094-0.273-1.548C421.153,545.324,420.894,544.945,420.587,544.611 M401.199,543.572
		c0,0.962-0.156,1.872-0.468,2.681c-0.332,0.837-0.789,1.585-1.358,2.201c-0.572,0.617-1.233,1.111-2.032,1.486
		c-0.8,0.35-1.668,0.534-2.616,0.534c-0.954,0-1.826-0.188-2.63-0.562c-0.795-0.354-1.483-0.853-2.059-1.488
		c-0.577-0.618-1.035-1.345-1.367-2.185c-0.317-0.86-0.467-1.751-0.467-2.707v-0.062c0-0.96,0.149-1.861,0.467-2.681
		c0.332-0.856,0.79-1.583,1.332-2.202c0.571-0.636,1.253-1.108,2.06-1.477c0.801-0.357,1.671-0.543,2.614-0.543
		c0.956,0,1.826,0.189,2.627,0.566c0.777,0.358,1.485,0.852,2.056,1.49c0.585,0.612,1.042,1.343,1.374,2.203
		c0.312,0.842,0.468,1.752,0.468,2.704V543.572L401.199,543.572z M400.82,537.404c-0.738-0.799-1.634-1.437-2.662-1.895
		c-1.035-0.46-2.152-0.696-3.434-0.696c-1.261,0-2.407,0.24-3.463,0.7c-1.04,0.479-1.914,1.106-2.67,1.905
		c-0.736,0.796-1.307,1.734-1.721,2.781c-0.414,1.059-0.614,2.167-0.614,3.332v0.04c0,1.156,0.2,2.253,0.586,3.317
		c0.406,1.038,0.988,1.978,1.713,2.747c0.75,0.8,1.639,1.437,2.662,1.902c1.058,0.46,2.204,0.686,3.457,0.686
		c1.264,0,2.409-0.229,3.443-0.714c1.054-0.466,1.936-1.106,2.691-1.885c0.732-0.792,1.308-1.732,1.721-2.772
		c0.411-1.071,0.61-2.172,0.61-3.321c0.028-0.025,0.028-0.038,0-0.062c0-1.147-0.199-2.254-0.603-3.289
		C402.14,539.118,401.574,538.182,400.82,537.404 M426.708,551.953h1.866v-16.86h-1.866V551.953z M329.563,536.845h5.582v15.108
		h1.846v-15.108h5.583v-1.753h-13.011V536.845z M160.792,549.836c-0.819,0.419-1.8,0.639-2.943,0.639
		c-0.897,0-1.752-0.185-2.536-0.534c-0.777-0.375-1.466-0.869-2.02-1.486c-0.604-0.615-1.045-1.364-1.356-2.201
		c-0.335-0.842-0.508-1.761-0.508-2.721v-0.062c0-0.96,0.173-1.861,0.508-2.705c0.312-0.838,0.752-1.568,1.356-2.205
		c0.554-0.619,1.243-1.108,2.02-1.457c0.784-0.35,1.639-0.535,2.536-0.535c1.143,0,2.124,0.229,2.943,0.655
		c0.8,0.421,1.564,0.985,2.27,1.664l1.278-1.404c-0.404-0.388-0.838-0.768-1.278-1.097c-0.438-0.319-0.927-0.614-1.43-0.841
		c-0.545-0.23-1.1-0.422-1.707-0.536c-0.594-0.142-1.284-0.196-2.044-0.196c-1.217,0-2.336,0.232-3.364,0.688
		c-1.028,0.457-1.893,1.08-2.647,1.876c-0.727,0.792-1.318,1.715-1.752,2.773c-0.417,1.066-0.609,2.183-0.609,3.382v0.04
		c0,1.196,0.191,2.331,0.609,3.398c0.434,1.062,1.026,1.977,1.752,2.748c0.754,0.785,1.62,1.393,2.625,1.85
		c1.011,0.436,2.115,0.656,3.316,0.656c0.76,0,1.442-0.071,2.072-0.197c0.611-0.174,1.186-0.346,1.71-0.61
		c0.539-0.258,1.051-0.565,1.508-0.937c0.473-0.354,0.913-0.762,1.352-1.22l-1.253-1.215
		C162.432,548.826,161.612,549.411,160.792,549.836 M180.316,542.586h-9.558v-7.494h-1.864v16.861h1.864v-7.576h9.558v7.576h1.864
		v-16.861h-1.864V542.586L180.316,542.586z M127.092,536.845h5.574v15.108h1.87v-15.108h5.558v-1.753h-13.002V536.845z
		 M88.357,551.953h1.866v-7.348h8.972v-1.71h-8.972v-6.051h10.04v-1.753H88.357V551.953z M115.382,545.783l3.786-8.594l3.756,8.594
		H115.382z M118.308,534.977l-7.535,16.977h1.919l1.965-4.456h9.02l1.93,4.456h2.012l-7.555-16.977H118.308L118.308,534.977z
		 M105.227,551.954h1.87v-16.86h-1.87V551.954z M189.935,543.69v-6.846h5.124c1.329,0,2.376,0.305,3.124,0.876
		c0.737,0.604,1.104,1.406,1.104,2.465v0.044c0,0.536-0.099,1.029-0.324,1.444c-0.196,0.426-0.496,0.805-0.878,1.104
		c-0.378,0.275-0.839,0.507-1.355,0.656c-0.512,0.182-1.087,0.256-1.712,0.256H189.935L189.935,543.69z M198.467,544.492
		c0.551-0.261,1.028-0.599,1.422-0.997c0.418-0.41,0.729-0.899,0.956-1.467c0.206-0.542,0.32-1.158,0.32-1.878v-0.046
		c0-0.676-0.115-1.285-0.32-1.853c-0.228-0.571-0.538-1.037-0.956-1.454c-0.512-0.538-1.182-0.948-1.981-1.251
		c-0.792-0.301-1.697-0.455-2.723-0.455h-7.125v16.862h1.874v-6.55h4.724l4.796,6.55h2.301l-5.086-6.891
		C197.324,544.945,197.908,544.756,198.467,544.492 M210.119,543.532l-5.566-8.44h-2.266l6.877,10.197v6.664h1.871v-6.695
		l6.89-10.166h-2.175L210.119,543.532L210.119,543.532z M230.245,544.343c-0.875-0.73-2.229-1.304-4.092-1.743
		c-0.917-0.172-1.662-0.39-2.25-0.615c-0.575-0.199-1.031-0.432-1.354-0.721c-0.354-0.264-0.571-0.537-0.702-0.854
		c-0.118-0.326-0.185-0.674-0.185-1.067v-0.058c0-0.769,0.316-1.415,0.931-1.923c0.641-0.528,1.517-0.794,2.604-0.794
		c0.838,0,1.658,0.148,2.437,0.426c0.788,0.298,1.564,0.762,2.328,1.402l1.102-1.453c-0.857-0.705-1.732-1.215-2.643-1.551
		c-0.917-0.347-1.965-0.531-3.199-0.531c-0.768,0-1.505,0.116-2.17,0.346c-0.649,0.228-1.241,0.56-1.717,0.981
		c-0.499,0.393-0.878,0.875-1.146,1.445c-0.262,0.548-0.402,1.156-0.402,1.831v0.042c0,0.683,0.118,1.291,0.326,1.797
		c0.229,0.524,0.573,0.974,1.03,1.353c0.459,0.385,1.042,0.703,1.752,0.971c0.688,0.293,1.508,0.528,2.456,0.75
		c0.875,0.189,1.6,0.379,2.151,0.581c0.571,0.221,1.024,0.453,1.332,0.71c0.307,0.264,0.535,0.543,0.653,0.851
		c0.144,0.308,0.205,0.673,0.205,1.052v0.048c0,0.831-0.342,1.519-1.024,2.055c-0.653,0.532-1.551,0.802-2.674,0.802
		c-1.155,0-2.163-0.191-3.048-0.581c-0.891-0.407-1.77-0.988-2.627-1.787l-1.163,1.38c0.996,0.915,2.041,1.599,3.128,2.024
		c1.103,0.451,2.306,0.68,3.623,0.68c0.835,0,1.58-0.119,2.285-0.345c0.701-0.226,1.291-0.539,1.784-0.956
		c0.493-0.42,0.862-0.92,1.159-1.511c0.275-0.587,0.421-1.238,0.421-1.954v-0.068C231.557,546.094,231.117,545.095,230.245,544.343
		 M237.942,535.092h-1.866v16.862h11.19v-1.777h-9.324V535.092z"/>
</g>
</svg>
